<?xml version="1.0" encoding="UTF-8"?>
<!DOCTYPE svg PUBLIC "-//W3C//DTD SVG 1.1//EN" "http://www.w3.org/Graphics/SVG/1.1/DTD/svg11.dtd">
<!-- Creator: CorelDRAW -->
<svg xmlns="http://www.w3.org/2000/svg" xml:space="preserve" width="6.82666in" height="6.82666in" style="shape-rendering:geometricPrecision; text-rendering:geometricPrecision; image-rendering:optimizeQuality; fill-rule:evenodd; clip-rule:evenodd"
viewBox="0 0 6.82666 6.82666"
 xmlns:xlink="http://www.w3.org/1999/xlink">
 <defs>
  <style type="text/css">
   <![CDATA[
    .fil0 {fill:#7E57C2}
    .fil1 {fill:#FFFFFE;fill-rule:nonzero}
   ]]>
  </style>
 </defs>
 <g id="Layer_x0020_1">
  <metadata id="CorelCorpID_0Corel-Layer"/>
  <rect class="fil0" width="6.82666" height="6.82666" rx="0.853335" ry="0.853335"/>
  <g id="_477832608">
   <path id="_477832848" class="fil1" d="M2.47852 2.06887l0 -0.913457c0,-0.0705787 0.0287953,-0.134657 0.0751732,-0.181035 0.046378,-0.046378 0.110457,-0.0751693 0.181031,-0.0751693l1.2195 0c0.0705709,0 0.134654,0.0287913 0.181031,0.0751693 0.046378,0.046378 0.0751732,0.110465 0.0751732,0.181035l0 0.913457c-0.681209,0 -1.4633,0 -1.73191,0z"/>
   <g>
    <path id="_477832800" class="fil1" d="M0.967201 1.41139c-0.0628858,0 -0.11387,0.0509843 -0.11387,0.113874 0,0.0628858 0.0509843,0.11387 0.11387,0.11387l0.693303 0 0.18124 0.29226 0.52563 3.0162c0.00972835,0.0558228 0.0585827,0.0950079 0.113476,0.094315l3.05243 0c0.0628898,0 0.113874,-0.0509843 0.113874,-0.11387 0,-0.0628858 -0.0509843,-0.11387 -0.113874,-0.11387l-2.95816 0 -0.0701457 -0.402398 2.99927 0c0.0849134,0 0.158185,-0.0338701 0.212882,-0.0885748 0.0541614,-0.0541535 0.0890433,-0.129425 0.0970157,-0.211539l0.157531 -1.62263c0.00111024,-0.0114331 0.00165354,-0.0201614 0.00165354,-0.0263268 0,-0.0792638 -0.0341142,-0.150323 -0.087752,-0.203028 -0.0506575,-0.0497835 -0.119886,-0.0831102 -0.19389,-0.0902874 -0.012437,-0.00120472 -0.0224567,-0.00182283 -0.0299094,-0.00182283l-3.54802 0 -0.0505315 -0.28987c-0.00187008,-0.016126 -0.00722441,-0.0321102 -0.0163465,-0.0468228l-0.000366142 0.000228346 -0.221425 -0.357059c-0.018752,-0.0371575 -0.0572559,-0.0626496 -0.101717,-0.0626496l-0.756173 0z"/>
    <path id="_477833232" class="fil1" d="M2.99104 5.14751c0.107673,0 0.205173,0.0436535 0.275744,0.114228 0.0705748,0.0705748 0.114232,0.168071 0.114232,0.275744 0,0.107677 -0.0436575,0.205169 -0.114232,0.275744 -0.0705709,0.0705748 -0.168071,0.114228 -0.275744,0.114228 -0.107673,0 -0.205169,-0.0436535 -0.275744,-0.114228 -0.0705709,-0.0705748 -0.114228,-0.168067 -0.114228,-0.275744 0,-0.107673 0.0436575,-0.205169 0.114228,-0.275744 0.0705748,-0.0705748 0.168075,-0.114228 0.275744,-0.114228z"/>
    <path id="_477832680" class="fil1" d="M4.69363 5.14751c0.107673,0 0.205173,0.0436535 0.275744,0.114228 0.0705748,0.0705748 0.114232,0.168071 0.114232,0.275744 0,0.107677 -0.0436575,0.205169 -0.114232,0.275744 -0.0705709,0.0705748 -0.168071,0.114228 -0.275744,0.114228 -0.107673,0 -0.205169,-0.0436535 -0.275744,-0.114228 -0.0705748,-0.0705748 -0.114228,-0.168067 -0.114228,-0.275744 0,-0.107673 0.0436535,-0.205169 0.114228,-0.275744 0.0705748,-0.0705748 0.168075,-0.114228 0.275744,-0.114228z"/>
   </g>
   <path id="_477832320" class="fil1" d="M4.32428 2.06887l0 -0.691319c0,-0.0534134 0.0217913,-0.101909 0.0568937,-0.137008 0.0350984,-0.0351024 0.0835945,-0.0568937 0.137008,-0.0568937l0.922933 0c0.0534055,0 0.101909,0.0217913 0.137008,0.0568937 0.0350984,0.0350984 0.0568898,0.0835984 0.0568898,0.137008l0 0.691319c-0.515547,0 -1.10745,0 -1.31073,0z"/>
  </g>
 </g>
</svg>
